<?xml version="1.0" standalone="no"?>
<!DOCTYPE svg PUBLIC "-//W3C//DTD SVG 1.1//EN"
"http://www.w3.org/Graphics/SVG/1.1/DTD/svg11.dtd">

<svg width="806" height="220" view_box="0 0 806 220"
xmlns="http://www.w3.org/2000/svg"
xmlns:link="http://www.w3.org/1999/xlink">\n\n<desc>Généré par Mocodo 2.3.7 le Wed, 24 Feb 2021 00:14:01</desc>

<rect id="frame" x="0" y="0" width="806" height="220" fill="#f7f7f7" stroke="none" stroke-width="0"/>

<!-- Association envoie -->
<line x1="193" y1="77" x2="311" y2="77" stroke="#9970ab" stroke-width="2"/>
<text x="256" y="69.0" fill="#1b7837" font-family="Verdana" font-size="12">0,N</text>
<line x1="423" y1="77" x2="311" y2="77" stroke="#9970ab" stroke-width="2"/>
<text x="345" y="94.0" fill="#1b7837" font-family="Verdana" font-size="12">1,1</text>
<g id="association-envoie">
	<path d="M 325 52 a 14 14 90 0 1 14 14 V 77 h -56 V 66 a 14 14 90 0 1 14 -14" fill="#c2a5cf" stroke="#c2a5cf" stroke-width="0"/>
	<path d="M 339 77.0 v 11 a 14 14 90 0 1 -14 14 H 297 a 14 14 90 0 1 -14 -14 V 77.0 H 56" fill="#e7d4e8" stroke="#e7d4e8" stroke-width="0"/>
	<rect x="283" y="52" width="56" height="50" fill="none" rx="14" stroke="#9970ab" stroke-width="2"/>
	<line x1="283" y1="77" x2="339" y2="77" stroke="#9970ab" stroke-width="1"/>
	<text x="290" y="69.7" fill="#000000" font-family="Verdana" font-size="12">envoie</text>
</g>

<!-- Association reçoit -->
<line x1="193" y1="77" x2="423" y2="186" stroke="#9970ab" stroke-width="2"/>
<text x="256" y="100.196384785" fill="#1b7837" font-family="Verdana" font-size="12">0,N</text>
<line x1="423" y1="77" x2="423" y2="186" stroke="#9970ab" stroke-width="2"/>
<text x="428.0" y="153" fill="#1b7837" font-family="Verdana" font-size="12">1,1</text>
<g id="association-reçoit">
	<path d="M 434 161 a 14 14 90 0 1 14 14 V 186 h -50 V 175 a 14 14 90 0 1 14 -14" fill="#c2a5cf" stroke="#c2a5cf" stroke-width="0"/>
	<path d="M 448 186.0 v 11 a 14 14 90 0 1 -14 14 H 412 a 14 14 90 0 1 -14 -14 V 186.0 H 50" fill="#e7d4e8" stroke="#e7d4e8" stroke-width="0"/>
	<rect x="398" y="161" width="50" height="50" fill="none" rx="14" stroke="#9970ab" stroke-width="2"/>
	<line x1="398" y1="186" x2="448" y2="186" stroke="#9970ab" stroke-width="1"/>
	<text x="405" y="178.7" fill="#000000" font-family="Verdana" font-size="12">reçoit</text>
</g>

<!-- Association correspond -->
<line x1="423" y1="77" x2="548" y2="77" stroke="#9970ab" stroke-width="2"/>
<text x="480" y="94.0" fill="#1b7837" font-family="Verdana" font-size="12">0,1</text>
<line x1="709" y1="77" x2="548" y2="77" stroke="#9970ab" stroke-width="2"/>
<text x="594" y="94.0" fill="#1b7837" font-family="Verdana" font-size="12">1,N</text>
<g id="association-correspond">
	<path d="M 575 52 a 14 14 90 0 1 14 14 V 77 h -82 V 66 a 14 14 90 0 1 14 -14" fill="#c2a5cf" stroke="#c2a5cf" stroke-width="0"/>
	<path d="M 589 77.0 v 11 a 14 14 90 0 1 -14 14 H 521 a 14 14 90 0 1 -14 -14 V 77.0 H 82" fill="#e7d4e8" stroke="#e7d4e8" stroke-width="0"/>
	<rect x="507" y="52" width="82" height="50" fill="none" rx="14" stroke="#9970ab" stroke-width="2"/>
	<line x1="507" y1="77" x2="589" y2="77" stroke="#9970ab" stroke-width="1"/>
	<text x="514" y="69.7" fill="#000000" font-family="Verdana" font-size="12">correspond</text>
</g>

<!-- Entity UTILISATEUR -->
<g id="entity-UTILISATEUR">
	<g id="frame-UTILISATEUR">
		<rect x="9" y="43" width="94" height="25" fill="#a6dba0" stroke="#a6dba0" stroke-width="0"/>
		<rect x="9" y="68.0" width="94" height="43" fill="#d9f0d3" stroke="#d9f0d3" stroke-width="0"/>
		<rect x="9" y="43" width="94" height="68" fill="none" stroke="#5aae61" stroke-width="2"/>
		<line x1="9" y1="68" x2="103" y2="68" stroke="#5aae61" stroke-width="1"/>
	</g>
	<text x="14" y="60.7" fill="#000000" font-family="Verdana" font-size="12">UTILISATEUR</text>
	<text x="14" y="85.8" fill="#000000" font-family="Verdana" font-size="12">adresse mail</text>
	<text x="14" y="102.8" fill="#000000" font-family="Verdana" font-size="12">mot de passe</text>
</g>

<!-- Entity EXPEDITION -->
<g id="entity-EXPEDITION">
	<g id="frame-EXPEDITION">
		<rect x="621" y="26" width="176" height="25" fill="#a6dba0" stroke="#a6dba0" stroke-width="0"/>
		<rect x="621" y="51.0" width="176" height="77" fill="#d9f0d3" stroke="#d9f0d3" stroke-width="0"/>
		<rect x="621" y="26" width="176" height="102" fill="none" stroke="#5aae61" stroke-width="2"/>
		<line x1="621" y1="51" x2="797" y2="51" stroke="#5aae61" stroke-width="1"/>
	</g>
	<text x="670" y="43.7" fill="#000000" font-family="Verdana" font-size="12">EXPEDITION</text>
	<text x="626" y="68.7" fill="#000000" font-family="Verdana" font-size="12">nom livreur</text>
	<text x="626" y="85.8" fill="#000000" font-family="Verdana" font-size="12">plaque immatriculation</text>
	<text x="626" y="102.8" fill="#000000" font-family="Verdana" font-size="12">date heure départ entrepôt</text>
	<text x="626" y="119.8" fill="#000000" font-family="Verdana" font-size="12">date heure retour entrepot</text>
</g>

<!-- Entity ADRESSE -->
<g id="entity-ADRESSE">
	<g id="frame-ADRESSE">
		<rect x="135" y="9" width="116" height="25" fill="#a6dba0" stroke="#a6dba0" stroke-width="0"/>
		<rect x="135" y="34.0" width="116" height="111" fill="#d9f0d3" stroke="#d9f0d3" stroke-width="0"/>
		<rect x="135" y="9" width="116" height="136" fill="none" stroke="#5aae61" stroke-width="2"/>
		<line x1="135" y1="34" x2="251" y2="34" stroke="#5aae61" stroke-width="1"/>
	</g>
	<text x="164" y="26.7" fill="#000000" font-family="Verdana" font-size="12">ADRESSE</text>
	<text x="140" y="51.7" fill="#000000" font-family="Verdana" font-size="12">référence interne</text>
	<text x="140" y="68.7" fill="#000000" font-family="Verdana" font-size="12">nom</text>
	<text x="140" y="85.8" fill="#000000" font-family="Verdana" font-size="12">ligne principale</text>
	<text x="140" y="102.8" fill="#000000" font-family="Verdana" font-size="12">complément</text>
	<text x="140" y="119.8" fill="#000000" font-family="Verdana" font-size="12">code postal</text>
	<text x="140" y="136.8" fill="#000000" font-family="Verdana" font-size="12">ville</text>
</g>

<!-- Entity COLIS -->
<g id="entity-COLIS">
	<g id="frame-COLIS">
		<rect x="371" y="18" width="104" height="25" fill="#a6dba0" stroke="#a6dba0" stroke-width="0"/>
		<rect x="371" y="43.0" width="104" height="93" fill="#d9f0d3" stroke="#d9f0d3" stroke-width="0"/>
		<rect x="371" y="18" width="104" height="118" fill="none" stroke="#5aae61" stroke-width="2"/>
		<line x1="371" y1="43" x2="475" y2="43" stroke="#5aae61" stroke-width="1"/>
	</g>
	<text x="403" y="35.7" fill="#000000" font-family="Verdana" font-size="12">COLIS</text>
	<text x="376" y="60.7" fill="#000000" font-family="Verdana" font-size="12">numéro interne</text>
	<text x="376" y="77.8" fill="#000000" font-family="Verdana" font-size="12">contenu</text>
	<text x="376" y="94.8" fill="#000000" font-family="Verdana" font-size="12">poids</text>
	<text x="376" y="111.8" fill="#000000" font-family="Verdana" font-size="12">volume</text>
	<text x="376" y="128.8" fill="#000000" font-family="Verdana" font-size="12">valeur estimée</text>
</g>
</svg>