<?xml version="1.0" standalone="no"?>
<!DOCTYPE svg PUBLIC "-//W3C//DTD SVG 1.1//EN"
"http://www.w3.org/Graphics/SVG/1.1/DTD/svg11.dtd">

<svg width="680" height="320" view_box="0 0 680 320"
xmlns="http://www.w3.org/2000/svg"
xmlns:link="http://www.w3.org/1999/xlink">\n\n<desc>Généré par Mocodo 2.3.7 le Thu, 25 Feb 2021 09:22:59</desc>

<rect id="frame" x="0" y="0" width="680" height="320" fill="#f5f5f5" stroke="none" stroke-width="0"/>

<!-- Association envoie -->
<line x1="67" y1="177" x2="185" y2="177" stroke="#bf812d" stroke-width="2"/>
<text x="130" y="169.0" fill="#01665e" font-family="Verdana" font-size="12">0,N</text>
<line x1="297" y1="177" x2="185" y2="177" stroke="#bf812d" stroke-width="2"/>
<text x="219" y="194.0" fill="#01665e" font-family="Verdana" font-size="12">1,1</text>
<g id="association-envoie">
	<path d="M 199 152 a 14 14 90 0 1 14 14 V 177 h -56 V 166 a 14 14 90 0 1 14 -14" fill="#dfc27d" stroke="#dfc27d" stroke-width="0"/>
	<path d="M 213 177.0 v 11 a 14 14 90 0 1 -14 14 H 171 a 14 14 90 0 1 -14 -14 V 177.0 H 56" fill="#f6e8c3" stroke="#f6e8c3" stroke-width="0"/>
	<rect x="157" y="152" width="56" height="50" fill="none" rx="14" stroke="#bf812d" stroke-width="2"/>
	<line x1="157" y1="177" x2="213" y2="177" stroke="#bf812d" stroke-width="1"/>
	<text x="164" y="169.7" fill="#000000" font-family="Verdana" font-size="12">envoie</text>
</g>

<!-- Association reçoit -->
<line x1="67" y1="177" x2="297" y2="286" stroke="#bf812d" stroke-width="2"/>
<text x="130" y="200.196384785" fill="#01665e" font-family="Verdana" font-size="12">0,N</text>
<line x1="297" y1="177" x2="297" y2="286" stroke="#bf812d" stroke-width="2"/>
<text x="302.0" y="253" fill="#01665e" font-family="Verdana" font-size="12">1,1</text>
<g id="association-reçoit">
	<path d="M 308 261 a 14 14 90 0 1 14 14 V 286 h -50 V 275 a 14 14 90 0 1 14 -14" fill="#dfc27d" stroke="#dfc27d" stroke-width="0"/>
	<path d="M 322 286.0 v 11 a 14 14 90 0 1 -14 14 H 286 a 14 14 90 0 1 -14 -14 V 286.0 H 50" fill="#f6e8c3" stroke="#f6e8c3" stroke-width="0"/>
	<rect x="272" y="261" width="50" height="50" fill="none" rx="14" stroke="#bf812d" stroke-width="2"/>
	<line x1="272" y1="286" x2="322" y2="286" stroke="#bf812d" stroke-width="1"/>
	<text x="279" y="278.7" fill="#000000" font-family="Verdana" font-size="12">reçoit</text>
</g>

<!-- Association correspond -->
<line x1="297" y1="177" x2="422" y2="177" stroke="#bf812d" stroke-width="2"/>
<text x="354" y="194.0" fill="#01665e" font-family="Verdana" font-size="12">0,1</text>
<line x1="583" y1="177" x2="422" y2="177" stroke="#bf812d" stroke-width="2"/>
<text x="468" y="194.0" fill="#01665e" font-family="Verdana" font-size="12">1,N</text>
<g id="association-correspond">
	<path d="M 449 152 a 14 14 90 0 1 14 14 V 177 h -82 V 166 a 14 14 90 0 1 14 -14" fill="#dfc27d" stroke="#dfc27d" stroke-width="0"/>
	<path d="M 463 177.0 v 11 a 14 14 90 0 1 -14 14 H 395 a 14 14 90 0 1 -14 -14 V 177.0 H 82" fill="#f6e8c3" stroke="#f6e8c3" stroke-width="0"/>
	<rect x="381" y="152" width="82" height="50" fill="none" rx="14" stroke="#bf812d" stroke-width="2"/>
	<line x1="381" y1="177" x2="463" y2="177" stroke="#bf812d" stroke-width="1"/>
	<text x="388" y="169.7" fill="#000000" font-family="Verdana" font-size="12">correspond</text>
</g>

<!-- Association défini -->
<line x1="185" y1="51" x2="297" y2="51" stroke="#bf812d" stroke-width="2"/>
<text x="219" y="68.0" fill="#01665e" font-family="Verdana" font-size="12">0,N</text>
<line x1="422" y1="51" x2="297" y2="51" stroke="#bf812d" stroke-width="2"/>
<text x="349" y="68.0" fill="#01665e" font-family="Verdana" font-size="12">1,1</text>
<g id="association-défini">
	<path d="M 307 26 a 14 14 90 0 1 14 14 V 51 h -48 V 40 a 14 14 90 0 1 14 -14" fill="#dfc27d" stroke="#dfc27d" stroke-width="0"/>
	<path d="M 321 51.0 v 11 a 14 14 90 0 1 -14 14 H 287 a 14 14 90 0 1 -14 -14 V 51.0 H 48" fill="#f6e8c3" stroke="#f6e8c3" stroke-width="0"/>
	<rect x="273" y="26" width="48" height="50" fill="none" rx="14" stroke="#bf812d" stroke-width="2"/>
	<line x1="273" y1="51" x2="321" y2="51" stroke="#bf812d" stroke-width="1"/>
	<text x="280" y="43.7" fill="#000000" font-family="Verdana" font-size="12">défini</text>
</g>

<!-- Entity UTILISATEUR -->
<g id="entity-UTILISATEUR">
	<g id="frame-UTILISATEUR">
		<rect x="375" y="9" width="94" height="25" fill="#80cdc1" stroke="#80cdc1" stroke-width="0"/>
		<rect x="375" y="34.0" width="94" height="59" fill="#c7eae5" stroke="#c7eae5" stroke-width="0"/>
		<rect x="375" y="9" width="94" height="84" fill="none" stroke="#35978f" stroke-width="2"/>
		<line x1="375" y1="34" x2="469" y2="34" stroke="#35978f" stroke-width="1"/>
	</g>
	<text x="380" y="26.7" fill="#000000" font-family="Verdana" font-size="12">UTILISATEUR</text>
	<text x="380" y="51.8" fill="#000000" font-family="Verdana" font-size="12">mail</text>
	<text x="380" y="68.8" fill="#000000" font-family="Verdana" font-size="12">mot de passe</text>
	<text x="380" y="85.8" fill="#000000" font-family="Verdana" font-size="12">sel</text>
</g>

<!-- Entity COLIS -->
<g id="entity-COLIS">
	<g id="frame-COLIS">
		<rect x="245" y="118" width="104" height="25" fill="#80cdc1" stroke="#80cdc1" stroke-width="0"/>
		<rect x="245" y="143.0" width="104" height="93" fill="#c7eae5" stroke="#c7eae5" stroke-width="0"/>
		<rect x="245" y="118" width="104" height="118" fill="none" stroke="#35978f" stroke-width="2"/>
		<line x1="245" y1="143" x2="349" y2="143" stroke="#35978f" stroke-width="1"/>
	</g>
	<text x="277" y="135.7" fill="#000000" font-family="Verdana" font-size="12">COLIS</text>
	<text x="250" y="160.7" fill="#000000" font-family="Verdana" font-size="12">numéro interne</text>
	<text x="250" y="177.8" fill="#000000" font-family="Verdana" font-size="12">contenu</text>
	<text x="250" y="194.8" fill="#000000" font-family="Verdana" font-size="12">poids</text>
	<text x="250" y="211.8" fill="#000000" font-family="Verdana" font-size="12">volume</text>
	<text x="250" y="228.8" fill="#000000" font-family="Verdana" font-size="12">valeur estimée</text>
</g>

<!-- Entity ADRESSE -->
<g id="entity-ADRESSE">
	<g id="frame-ADRESSE">
		<rect x="9" y="109" width="116" height="25" fill="#80cdc1" stroke="#80cdc1" stroke-width="0"/>
		<rect x="9" y="134.0" width="116" height="111" fill="#c7eae5" stroke="#c7eae5" stroke-width="0"/>
		<rect x="9" y="109" width="116" height="136" fill="none" stroke="#35978f" stroke-width="2"/>
		<line x1="9" y1="134" x2="125" y2="134" stroke="#35978f" stroke-width="1"/>
	</g>
	<text x="38" y="126.7" fill="#000000" font-family="Verdana" font-size="12">ADRESSE</text>
	<text x="14" y="151.7" fill="#000000" font-family="Verdana" font-size="12">référence interne</text>
	<text x="14" y="168.7" fill="#000000" font-family="Verdana" font-size="12">nom</text>
	<text x="14" y="185.8" fill="#000000" font-family="Verdana" font-size="12">ligne principale</text>
	<text x="14" y="202.8" fill="#000000" font-family="Verdana" font-size="12">complément</text>
	<text x="14" y="219.8" fill="#000000" font-family="Verdana" font-size="12">code postal</text>
	<text x="14" y="236.8" fill="#000000" font-family="Verdana" font-size="12">ville</text>
</g>

<!-- Entity EXPEDITION -->
<g id="entity-EXPEDITION">
	<g id="frame-EXPEDITION">
		<rect x="495" y="126" width="176" height="25" fill="#80cdc1" stroke="#80cdc1" stroke-width="0"/>
		<rect x="495" y="151.0" width="176" height="77" fill="#c7eae5" stroke="#c7eae5" stroke-width="0"/>
		<rect x="495" y="126" width="176" height="102" fill="none" stroke="#35978f" stroke-width="2"/>
		<line x1="495" y1="151" x2="671" y2="151" stroke="#35978f" stroke-width="1"/>
	</g>
	<text x="544" y="143.7" fill="#000000" font-family="Verdana" font-size="12">EXPEDITION</text>
	<text x="500" y="168.7" fill="#000000" font-family="Verdana" font-size="12">nom livreur</text>
	<text x="500" y="185.8" fill="#000000" font-family="Verdana" font-size="12">plaque immatriculation</text>
	<text x="500" y="202.8" fill="#000000" font-family="Verdana" font-size="12">date heure départ entrepôt</text>
	<text x="500" y="219.8" fill="#000000" font-family="Verdana" font-size="12">date heure retour entrepot</text>
</g>

<!-- Entity STATUT -->
<g id="entity-STATUT">
	<g id="frame-STATUT">
		<rect x="156" y="26" width="58" height="25" fill="#80cdc1" stroke="#80cdc1" stroke-width="0"/>
		<rect x="156" y="51.0" width="58" height="25" fill="#c7eae5" stroke="#c7eae5" stroke-width="0"/>
		<rect x="156" y="26" width="58" height="50" fill="none" stroke="#35978f" stroke-width="2"/>
		<line x1="156" y1="51" x2="214" y2="51" stroke="#35978f" stroke-width="1"/>
	</g>
	<text x="161" y="43.7" fill="#000000" font-family="Verdana" font-size="12">STATUT</text>
	<text x="161" y="68.8" fill="#000000" font-family="Verdana" font-size="12">name</text>
</g>
</svg>